# xmcd
#
# Track frame offsets: 
#        150
#        13198
#        31056
#        47500
#        56759
#        69366
#        86312
#        100466
#        113294
#        127981
#        139611
#        151292
#        169579
#        183848
#        197977
#        214528
#
# Disc length: 3136 seconds
#
# Revision: 1
# Processed by: cddbd v1.5.2PL0 Copyright (c) Steve Scherf et al.
# Submitted via: ExactAudioCopyFreeDBPlugin 1.0
#
DISCID=c60c3e10
DTITLE=Various Artist - The Best Blues Album in the World... Ever!  V
DTITLE=olume 2 [CD1]
DYEAR=2005
DGENRE=Blues
TTITLE0=Lightnin' Hopkins - Jake Head Boogie
TTITLE1=Reverend Gary Davis - Children Of Zion
TTITLE2=Son House - Death Letter Blues
TTITLE3=Roy Brown - Let The Four Winds Blow
TTITLE4=Elmore James - Standing at the Crossroads
TTITLE5=Dinah Washington - The Blues Ain't Nothin' But A Woman Cryin' 
TTITLE5=For Her Man
TTITLE6=Jimmy Rogers - That's Alright
TTITLE7=Howlin' Wolf - Back Door Man
TTITLE8=Muddy Waters - Rock Me
TTITLE9=Sonny Boy Williamson II - Don't Start Me Talking
TTITLE10=Albert King - Crosscut Saw
TTITLE11=Albert Collins - Baby What You Want Me To Do, Rock Me Baby
TTITLE12=Paul Butterfield Blues Band - Born In Chicago
TTITLE13=John Mayall and The Blues Breakers - Ramblin' On My Mind
TTITLE14=Stevie Ray Vaughn and Double Trouble - Pride And Joy
TTITLE15=Ought-Six - John Hammond - Sixteen Shells From A Thirty
EXTD=YEAR: 2005
EXTT0=
EXTT1=
EXTT2=
EXTT3=
EXTT4=
EXTT5=
EXTT6=
EXTT7=
EXTT8=
EXTT9=
EXTT10=
EXTT11=
EXTT12=
EXTT13=
EXTT14=
EXTT15=
PLAYORDER=
